<svg width="157" height="50" viewBox="0 0 157 50" fill="none" xmlns="http://www.w3.org/2000/svg">
<g id="Middle - Fill">
<rect id="Rectangle" width="157" height="50" rx="25" fill="#E93A7D"/>
<path id="Sign Up" d="M32.6237 31V18.4H34.5317V29.488H40.2557V31H32.6237ZM46.0265 31.216C45.1505 31.216 44.3705 31.024 43.6865 30.64C43.0145 30.244 42.4865 29.698 42.1025 29.002C41.7185 28.306 41.5265 27.496 41.5265 26.572C41.5265 25.636 41.7125 24.814 42.0845 24.106C42.4685 23.398 42.9965 22.846 43.6685 22.45C44.3525 22.054 45.1445 21.856 46.0445 21.856C46.9205 21.856 47.6825 22.054 48.3305 22.45C48.9785 22.834 49.4825 23.35 49.8425 23.998C50.2025 24.646 50.3825 25.36 50.3825 26.14C50.3825 26.26 50.3765 26.392 50.3645 26.536C50.3645 26.668 50.3585 26.818 50.3465 26.986H43.3985C43.4585 27.85 43.7405 28.51 44.2445 28.966C44.7605 29.41 45.3545 29.632 46.0265 29.632C46.5665 29.632 47.0165 29.512 47.3765 29.272C47.7485 29.02 48.0245 28.684 48.2045 28.264H50.1125C49.8725 29.104 49.3925 29.806 48.6725 30.37C47.9645 30.934 47.0825 31.216 46.0265 31.216ZM46.0265 23.422C45.3905 23.422 44.8265 23.614 44.3345 23.998C43.8425 24.37 43.5425 24.934 43.4345 25.69H48.4745C48.4385 24.994 48.1925 24.442 47.7365 24.034C47.2805 23.626 46.7105 23.422 46.0265 23.422ZM55.3863 31.216C54.6303 31.216 54.0063 31.09 53.5143 30.838C53.0223 30.586 52.6563 30.256 52.4163 29.848C52.1763 29.428 52.0563 28.972 52.0563 28.48C52.0563 27.616 52.3923 26.932 53.0643 26.428C53.7363 25.924 54.6963 25.672 55.9443 25.672H58.2843V25.51C58.2843 24.814 58.0923 24.292 57.7083 23.944C57.3363 23.596 56.8503 23.422 56.2503 23.422C55.7223 23.422 55.2603 23.554 54.8643 23.818C54.4803 24.07 54.2463 24.448 54.1623 24.952H52.2543C52.3143 24.304 52.5303 23.752 52.9023 23.296C53.2863 22.828 53.7663 22.474 54.3423 22.234C54.9303 21.982 55.5723 21.856 56.2683 21.856C57.5163 21.856 58.4823 22.186 59.1663 22.846C59.8503 23.494 60.1923 24.382 60.1923 25.51V31H58.5363L58.3743 29.47C58.1223 29.962 57.7563 30.376 57.2763 30.712C56.7963 31.048 56.1663 31.216 55.3863 31.216ZM55.7643 29.668C56.2803 29.668 56.7123 29.548 57.0603 29.308C57.4203 29.056 57.6963 28.726 57.8883 28.318C58.0923 27.91 58.2183 27.46 58.2663 26.968H56.1423C55.3863 26.968 54.8463 27.1 54.5223 27.364C54.2103 27.628 54.0543 27.958 54.0543 28.354C54.0543 28.762 54.2043 29.086 54.5043 29.326C54.8163 29.554 55.2363 29.668 55.7643 29.668ZM62.4169 31V22.072H64.1269L64.2889 23.764C64.6009 23.176 65.0329 22.714 65.5849 22.378C66.1489 22.03 66.8269 21.856 67.6189 21.856V23.854H67.0969C66.5689 23.854 66.0949 23.944 65.6749 24.124C65.2669 24.292 64.9369 24.586 64.6849 25.006C64.4449 25.414 64.3249 25.984 64.3249 26.716V31H62.4169ZM69.2548 31V22.072H70.9468L71.0908 23.638C71.3668 23.086 71.7688 22.654 72.2968 22.342C72.8368 22.018 73.4548 21.856 74.1508 21.856C75.2308 21.856 76.0768 22.192 76.6888 22.864C77.3128 23.536 77.6248 24.538 77.6248 25.87V31H75.7348V26.068C75.7348 24.34 75.0268 23.476 73.6108 23.476C72.9028 23.476 72.3148 23.728 71.8468 24.232C71.3908 24.736 71.1628 25.456 71.1628 26.392V31H69.2548ZM84.4792 31V18.4H86.7292L90.9952 26.788L95.2432 18.4H97.4932V31H95.5852V21.694L91.7332 29.2H90.2572L86.3872 21.712V31H84.4792ZM104.157 31.216C103.305 31.216 102.537 31.024 101.853 30.64C101.181 30.244 100.647 29.698 100.251 29.002C99.8554 28.294 99.6574 27.472 99.6574 26.536C99.6574 25.6 99.8554 24.784 100.251 24.088C100.659 23.38 101.205 22.834 101.889 22.45C102.573 22.054 103.335 21.856 104.175 21.856C105.027 21.856 105.789 22.054 106.461 22.45C107.145 22.834 107.685 23.38 108.081 24.088C108.489 24.784 108.693 25.6 108.693 26.536C108.693 27.472 108.489 28.294 108.081 29.002C107.685 29.698 107.145 30.244 106.461 30.64C105.777 31.024 105.009 31.216 104.157 31.216ZM104.157 29.578C104.613 29.578 105.033 29.464 105.417 29.236C105.813 29.008 106.131 28.672 106.371 28.228C106.611 27.772 106.731 27.208 106.731 26.536C106.731 25.864 106.611 25.306 106.371 24.862C106.143 24.406 105.831 24.064 105.435 23.836C105.051 23.608 104.631 23.494 104.175 23.494C103.719 23.494 103.293 23.608 102.897 23.836C102.513 24.064 102.201 24.406 101.961 24.862C101.721 25.306 101.601 25.864 101.601 26.536C101.601 27.208 101.721 27.772 101.961 28.228C102.201 28.672 102.513 29.008 102.897 29.236C103.281 29.464 103.701 29.578 104.157 29.578ZM110.757 31V22.072H112.467L112.629 23.764C112.941 23.176 113.373 22.714 113.925 22.378C114.489 22.03 115.167 21.856 115.959 21.856V23.854H115.437C114.909 23.854 114.435 23.944 114.015 24.124C113.607 24.292 113.277 24.586 113.025 25.006C112.785 25.414 112.665 25.984 112.665 26.716V31H110.757ZM121.525 31.216C120.649 31.216 119.869 31.024 119.185 30.64C118.513 30.244 117.985 29.698 117.601 29.002C117.217 28.306 117.025 27.496 117.025 26.572C117.025 25.636 117.211 24.814 117.583 24.106C117.967 23.398 118.495 22.846 119.167 22.45C119.851 22.054 120.643 21.856 121.543 21.856C122.419 21.856 123.181 22.054 123.829 22.45C124.477 22.834 124.981 23.35 125.341 23.998C125.701 24.646 125.881 25.36 125.881 26.14C125.881 26.26 125.875 26.392 125.863 26.536C125.863 26.668 125.857 26.818 125.845 26.986H118.897C118.957 27.85 119.239 28.51 119.743 28.966C120.259 29.41 120.853 29.632 121.525 29.632C122.065 29.632 122.515 29.512 122.875 29.272C123.247 29.02 123.523 28.684 123.703 28.264H125.611C125.371 29.104 124.891 29.806 124.171 30.37C123.463 30.934 122.581 31.216 121.525 31.216ZM121.525 23.422C120.889 23.422 120.325 23.614 119.833 23.998C119.341 24.37 119.041 24.934 118.933 25.69H123.973C123.937 24.994 123.691 24.442 123.235 24.034C122.779 23.626 122.209 23.422 121.525 23.422Z" fill="white"/>
</g>
</svg>
