<svg width="120" height="40" viewBox="0 0 120 40" fill="none" xmlns="http://www.w3.org/2000/svg">
<g id="Middle - Fill">
<rect id="Rectangle" width="120" height="40" rx="20" fill="#E93A7D"/>
<path id="Sign Up" d="M22.3766 26V13.4H26.7866C27.7706 13.4 28.5866 13.568 29.2346 13.904C29.8826 14.228 30.3626 14.678 30.6746 15.254C30.9986 15.818 31.1606 16.46 31.1606 17.18C31.1606 17.864 31.0046 18.494 30.6926 19.07C30.3926 19.634 29.9186 20.084 29.2706 20.42C28.6226 20.756 27.7946 20.924 26.7866 20.924H24.2846V26H22.3766ZM24.2846 19.358H26.6966C27.5966 19.358 28.2386 19.166 28.6226 18.782C29.0186 18.386 29.2166 17.852 29.2166 17.18C29.2166 16.484 29.0186 15.944 28.6226 15.56C28.2386 15.164 27.5966 14.966 26.6966 14.966H24.2846V19.358ZM41.1826 17.072V26H39.4906L39.3466 24.434C39.0706 24.986 38.6626 25.424 38.1226 25.748C37.5946 26.06 36.9826 26.216 36.2866 26.216C35.2066 26.216 34.3546 25.88 33.7306 25.208C33.1186 24.536 32.8126 23.534 32.8126 22.202V17.072H34.7026V22.004C34.7026 23.732 35.4106 24.596 36.8266 24.596C37.5346 24.596 38.1166 24.344 38.5726 23.84C39.0406 23.336 39.2746 22.616 39.2746 21.68V17.072H41.1826ZM43.5917 26V17.072H45.3017L45.4637 18.764C45.7757 18.176 46.2077 17.714 46.7597 17.378C47.3237 17.03 48.0017 16.856 48.7937 16.856V18.854H48.2717C47.7437 18.854 47.2697 18.944 46.8497 19.124C46.4417 19.292 46.1117 19.586 45.8597 20.006C45.6197 20.414 45.4997 20.984 45.4997 21.716V26H43.5917ZM54.4135 26.216C53.5375 26.216 52.7515 26.018 52.0555 25.622C51.3715 25.226 50.8315 24.68 50.4355 23.984C50.0515 23.276 49.8595 22.46 49.8595 21.536C49.8595 20.612 50.0515 19.802 50.4355 19.106C50.8315 18.398 51.3715 17.846 52.0555 17.45C52.7515 17.054 53.5375 16.856 54.4135 16.856C55.5175 16.856 56.4415 17.144 57.1855 17.72C57.9415 18.296 58.4275 19.076 58.6435 20.06H56.6455C56.5255 19.568 56.2615 19.184 55.8535 18.908C55.4455 18.632 54.9655 18.494 54.4135 18.494C53.9455 18.494 53.5135 18.614 53.1175 18.854C52.7215 19.082 52.4035 19.424 52.1635 19.88C51.9235 20.324 51.8035 20.876 51.8035 21.536C51.8035 22.196 51.9235 22.754 52.1635 23.21C52.4035 23.654 52.7215 23.996 53.1175 24.236C53.5135 24.476 53.9455 24.596 54.4135 24.596C54.9655 24.596 55.4455 24.458 55.8535 24.182C56.2615 23.906 56.5255 23.516 56.6455 23.012H58.6435C58.4395 23.972 57.9595 24.746 57.2035 25.334C56.4475 25.922 55.5175 26.216 54.4135 26.216ZM60.7128 26V13.04H62.6208V18.512C62.9208 17.996 63.3348 17.594 63.8628 17.306C64.4028 17.006 64.9968 16.856 65.6448 16.856C66.7128 16.856 67.5528 17.192 68.1648 17.864C68.7768 18.536 69.0828 19.538 69.0828 20.87V26H67.1928V21.068C67.1928 19.34 66.5028 18.476 65.1228 18.476C64.4028 18.476 63.8028 18.728 63.3228 19.232C62.8548 19.736 62.6208 20.456 62.6208 21.392V26H60.7128ZM74.354 26.216C73.598 26.216 72.974 26.09 72.482 25.838C71.99 25.586 71.624 25.256 71.384 24.848C71.144 24.428 71.024 23.972 71.024 23.48C71.024 22.616 71.36 21.932 72.032 21.428C72.704 20.924 73.664 20.672 74.912 20.672H77.252V20.51C77.252 19.814 77.06 19.292 76.676 18.944C76.304 18.596 75.818 18.422 75.218 18.422C74.69 18.422 74.228 18.554 73.832 18.818C73.448 19.07 73.214 19.448 73.13 19.952H71.222C71.282 19.304 71.498 18.752 71.87 18.296C72.254 17.828 72.734 17.474 73.31 17.234C73.898 16.982 74.54 16.856 75.236 16.856C76.484 16.856 77.45 17.186 78.134 17.846C78.818 18.494 79.16 19.382 79.16 20.51V26H77.504L77.342 24.47C77.09 24.962 76.724 25.376 76.244 25.712C75.764 26.048 75.134 26.216 74.354 26.216ZM74.732 24.668C75.248 24.668 75.68 24.548 76.028 24.308C76.388 24.056 76.664 23.726 76.856 23.318C77.06 22.91 77.186 22.46 77.234 21.968H75.11C74.354 21.968 73.814 22.1 73.49 22.364C73.178 22.628 73.022 22.958 73.022 23.354C73.022 23.762 73.172 24.086 73.472 24.326C73.784 24.554 74.204 24.668 74.732 24.668ZM84.9487 26.216C83.8207 26.216 82.8907 25.94 82.1587 25.388C81.4267 24.836 81.0067 24.104 80.8987 23.192H82.8247C82.9207 23.6 83.1487 23.954 83.5087 24.254C83.8687 24.542 84.3427 24.686 84.9307 24.686C85.5067 24.686 85.9267 24.566 86.1907 24.326C86.4547 24.086 86.5867 23.81 86.5867 23.498C86.5867 23.042 86.4007 22.736 86.0287 22.58C85.6687 22.412 85.1647 22.262 84.5167 22.13C84.0127 22.022 83.5087 21.878 83.0047 21.698C82.5127 21.518 82.0987 21.266 81.7627 20.942C81.4387 20.606 81.2767 20.156 81.2767 19.592C81.2767 18.812 81.5767 18.164 82.1767 17.648C82.7767 17.12 83.6167 16.856 84.6967 16.856C85.6927 16.856 86.4967 17.096 87.1087 17.576C87.7327 18.056 88.0987 18.734 88.2067 19.61H86.3707C86.3107 19.226 86.1307 18.926 85.8307 18.71C85.5427 18.494 85.1527 18.386 84.6607 18.386C84.1807 18.386 83.8087 18.488 83.5447 18.692C83.2807 18.884 83.1487 19.136 83.1487 19.448C83.1487 19.76 83.3287 20.006 83.6887 20.186C84.0607 20.366 84.5467 20.528 85.1467 20.672C85.7467 20.804 86.2987 20.96 86.8027 21.14C87.3187 21.308 87.7327 21.56 88.0447 21.896C88.3567 22.232 88.5127 22.724 88.5127 23.372C88.5247 24.188 88.2067 24.866 87.5587 25.406C86.9227 25.946 86.0527 26.216 84.9487 26.216ZM94.7716 26.216C93.8956 26.216 93.1156 26.024 92.4316 25.64C91.7596 25.244 91.2316 24.698 90.8476 24.002C90.4636 23.306 90.2716 22.496 90.2716 21.572C90.2716 20.636 90.4576 19.814 90.8296 19.106C91.2136 18.398 91.7416 17.846 92.4136 17.45C93.0976 17.054 93.8896 16.856 94.7896 16.856C95.6656 16.856 96.4276 17.054 97.0756 17.45C97.7236 17.834 98.2276 18.35 98.5876 18.998C98.9476 19.646 99.1276 20.36 99.1276 21.14C99.1276 21.26 99.1216 21.392 99.1096 21.536C99.1096 21.668 99.1036 21.818 99.0916 21.986H92.1436C92.2036 22.85 92.4856 23.51 92.9896 23.966C93.5056 24.41 94.0996 24.632 94.7716 24.632C95.3116 24.632 95.7616 24.512 96.1216 24.272C96.4936 24.02 96.7696 23.684 96.9496 23.264H98.8576C98.6176 24.104 98.1376 24.806 97.4176 25.37C96.7096 25.934 95.8276 26.216 94.7716 26.216ZM94.7716 18.422C94.1356 18.422 93.5716 18.614 93.0796 18.998C92.5876 19.37 92.2876 19.934 92.1796 20.69H97.2196C97.1836 19.994 96.9376 19.442 96.4816 19.034C96.0256 18.626 95.4556 18.422 94.7716 18.422Z" fill="white"/>
</g>
</svg>
